<svg xmlns="http://www.w3.org/2000/svg" viewBox="0 0 200 39" enable-background="new 0 0 200 39"><radialGradient id="a" cx="16.524" cy="13.776" r="23.654" gradientTransform="matrix(.991 0 0 .993 -.019 -.021)" gradientUnits="userSpaceOnUse"><stop offset="0" stop-color="#1B1E03" stop-opacity=".85"/><stop offset=".767" stop-color="#121500"/></radialGradient><path fill-rule="evenodd" clip-rule="evenodd" fill="url(#a)" d="M2 2h36v35h-36z"/><path fill-rule="evenodd" clip-rule="evenodd" fill="#8AE22A" d="M0 0v39h40v-39h-40zm2 2h36v35h-36v-35z"/><path fill="#8AE22A" d="M25 20l4.7-5.8c.1-.1.1-.2.3-.2h2.9c.2 0 .2.1.1.3-.7.9-3.8 4.7-4.8 5.9v.2l5.5 7.4c.1.1 0 .2-.1.2h-3.3c-.2 0-.2-.1-.3-.2-.9-1.2-3.7-4.7-4.9-6.4v6.4c0 .1 0 .2-.2.2h-2.6c-.3 0-.3-.1-.3-.2v-18.6c0-.1 0-.2.2-.2h2.6c.1 0 .2.1.2.2v10.8z"/><path fill="#8AE22A" d="M12 12h-4.8c-.2 0-.2-.1-.2-.2l.3-2.6c.1-.1.1-.2.3-.2h11.9c.2 0 .2.1.3.2l.3 2.5c0 .2-.1.2-.2.2h-4.9v15.8c0 .1-.1.2-.2.2h-2.5c-.2 0-.2-.1-.2-.2v-15.7z"/><g fill="#fff"><path d="M54.1 22.2l-2.4 6.6c0 .1-.1.1-.2.1h-1.1c-.1 0-.1-.1-.1-.2l6.4-17.6c.1-.2.1-.3.1-.8 0-.1.1-.1.1-.1h1.6c.1 0 .1 0 .2.1l6.7 18.3c0 .1 0 .2-.1.2h-1.1c-.1 0-.1 0-.2-.1l-2.4-6.7h-7.5zm7.2-1.2l-3.4-9.5c-.5 1.8-2 5.9-3.4 9.5h6.8z"/><path d="M66.5 22.4c0-4.1 3.1-7.1 7.3-7.1 1.1 0 1.7.1 2.3.2v-6.6c0-.1 0-.1.1-.1h1.1c.1 0 .1 0 .1.1v19.2c0 .1 0 .1-.1.2-1.4.7-2.7 1-4.2 1-3.6 0-6.6-2.4-6.6-6.9zm9.7-5.5c-.6-.3-1.4-.4-2.4-.4-3.9 0-5.9 2.7-5.9 5.8 0 4.2 2.7 5.7 5.4 5.7.9 0 2-.1 2.8-.5v-10.6z"/><path d="M92.4 22.3c0 4.1-2.5 7-6 7-4.3 0-6.2-3.7-6.2-7 0-4 2.5-7 6.1-7 3.6 0 6.1 2.8 6.1 7zm-10.9 0c0 3.1 1.7 5.8 4.9 5.8 2.2 0 4.6-1.7 4.6-5.7 0-2.9-1.4-5.8-4.8-5.8-2.8-.1-4.7 2.3-4.7 5.7z"/><path d="M96.2 8.8c.1 0 .1 0 .1.1v7.1c1-.4 2.1-.7 3.4-.7 3.7 0 6.2 2.7 6.2 6.5 0 4.9-3.6 7.5-7.4 7.5-1.3 0-2.4-.2-3.5-.5-.1 0-.1-.1-.1-.2v-19.7c0-.1.1-.1.2-.1h1.1zm3.5 7.7c-1.4 0-2.4.3-3.3.7v10.6c.7.2 1.3.3 2.4.3 3.1 0 5.9-2.1 5.9-6.2 0-3.1-1.9-5.4-5-5.4z"/><path d="M109.2 22.1c-.1 3.4 1.7 5.9 5.1 5.9 1.2 0 2.4-.2 3.5-.8.1-.1.1 0 .1.1v.9c0 .1 0 .2-.1.2-.8.5-2.1.8-3.7.8-4.6 0-6.3-3.5-6.3-6.9 0-3.9 2.3-7.1 5.8-7.1 3.9 0 5.2 3.2 5.2 5.3 0 .6 0 1-.1 1.2 0 .1-.1.2-.2.2-.4.1-1.8.1-2.9.1h-6.4zm6.2-1.1c1.7 0 2 0 2.1-.1v-.4c0-1.2-.7-4.1-3.9-4.1-2.7 0-4.1 2.2-4.4 4.5h6.2z"/><path d="M131.5 11.6h-6.3c-.1 0-.1 0-.1-.2l.2-1c0-.1.1-.1.2-.1h13.5c.1 0 .1 0 .2.1l.1 1c0 .1 0 .2-.1.2h-6.3v17.2c0 .1-.1.2-.2.2h-1c-.1 0-.2 0-.2-.2v-17.2z"/><path d="M138.8 15.6c.1 0 .1 0 .1.1 2.8 7.1 4.1 10.4 4.5 11.5.9-2.3 2.3-5.9 4.4-11.5 0-.1.1-.1.2-.1h1.1c.1 0 .1.1.1.2-2.1 6-4.9 12.8-7.9 19.5 0 .1-.1.1-.3.1l-1.1.1c-.1 0-.1-.1-.1-.2.8-1.7 2-4.3 2.9-6.6v-.3c-.6-1.5-3.5-8.5-5.2-12.8 0-.1 0-.1.1-.1h1.2z"/><path d="M162.1 21.8c0 5.1-3.9 7.5-7.7 7.5-1 0-1.5-.1-2-.2v6.1c0 .1 0 .1-.1.2-.3 0-1 .1-1.1.1-.1 0-.1 0-.1-.1v-18c0-.2 0-.5-.1-.8 0 0 0-.1.1-.1.6-.3 2.4-1.1 4.7-1.1 3.8-.1 6.3 2.5 6.3 6.4zm-9.6-4.6v10.7c.6.2 1.3.2 2 .2 3.2 0 6.2-2 6.2-6.2 0-3.2-1.8-5.3-5.1-5.3-1.1-.1-2.2.2-3.1.6z"/><path d="M165.3 22.1c-.1 3.4 1.7 5.9 5.1 5.9 1.2 0 2.4-.2 3.5-.8.1-.1.1 0 .1.1v.9c0 .1 0 .2-.1.2-.8.5-2.1.8-3.7.8-4.6 0-6.3-3.5-6.3-6.9 0-3.9 2.3-7.1 5.8-7.1 3.9 0 5.2 3.2 5.2 5.3 0 .6 0 1-.1 1.2 0 .1-.1.2-.2.2-.4.1-1.8.1-2.9.1h-6.4zm6.2-1.1c1.7 0 2 0 2.1-.1v-.4c0-1.2-.7-4.1-3.9-4.1-2.7 0-4.1 2.2-4.4 4.5h6.2z"/><path d="M178.7 28.9c0 .1 0 .1-.1.1h-1.1c-.1 0-.1 0-.1-.1v-20c0-.1.1-.1.1-.1h1.1c.1 0 .1 0 .1.1v20zm.3-7.1c1.2-1.1 5.7-5.4 6.5-6.1.1-.1.1-.1.2-.1h1.3c.1 0 .1.1.1.2-.8.8-5.5 5.1-6.5 6v.1c1.9 1.8 5.2 4.9 7.4 6.9.1.1 0 .2-.1.2h-1.5c-.1 0-.2 0-.3-.1-1.8-1.7-5.7-5.3-7.2-6.7 0-.2 0-.2.1-.4z"/><path d="M189.2 11.2c0-.6.4-1 .9-1 .6 0 .9.4.9 1 0 .5-.4.9-.9.9-.6 0-.9-.4-.9-.9zm.2 4.6c0-.1.1-.2.1-.2h1.1c.1 0 .1 0 .1.1v13.1c0 .1 0 .1-.1.1h-1c-.1 0-.2 0-.2-.2v-12.9z"/><path d="M199.9 28.7c0 .1 0 .1-.1.2-.6.3-1.3.4-1.9.4-1.8 0-2.9-.8-2.9-3.4v-9h-2.1c-.1 0-.2-.1-.2-.2v-.9c0-.1 0-.2.2-.2h2.1c0-1.1.1-3.2.2-3.7l.1-.2 1-.2c.1 0 .2 0 .2.1-.1 1-.2 2.7-.2 4h3.2c.1 0 .2.1.2.2v.9c0 .1-.1.1-.2.2h-3.2v9.1c0 1.3.6 2.2 1.9 2.2.4 0 1-.1 1.5-.3.1 0 .1 0 .1.1v.7z"/></g></svg>